<?xml version="1.0" standalone="no"?><!DOCTYPE svg PUBLIC "-//W3C//DTD SVG 1.1//EN" "http://www.w3.org/Graphics/SVG/1.1/DTD/svg11.dtd"><svg t="1585669277659" class="icon" viewBox="0 0 1024 1024" version="1.1" xmlns="http://www.w3.org/2000/svg" p-id="2903" xmlns:xlink="http://www.w3.org/1999/xlink" width="200" height="200"><defs><style type="text/css"></style></defs><path d="M434 319m24 0l457 0q24 0 24 24l0 24q0 24-24 24l-457 0q-24 0-24-24l0-24q0-24 24-24Z" p-id="2904" fill="#e6e6e6"></path><path d="M253.723 94.167a24 24 0 0 1 5.109 5.11l116.42 158.241c5.237 7.118 3.712 17.133-3.405 22.37a16 16 0 0 1-9.482 3.112h-58.366v457h59.366a16 16 0 0 1 9.135 2.864l0.347 0.248c7.117 5.237 8.642 15.252 3.406 22.37L259.832 923.724a24 24 0 0 1-5.11 5.109c-10.676 7.855-25.699 5.567-33.554-5.11l-116.42-158.241a16 16 0 0 1-3.113-9.482c0-8.837 7.164-16 16-16H176V283h-59.364c-8.836 0-16-7.163-16-16a16 16 0 0 1 3.112-9.482L220.168 99.276c7.855-10.676 22.878-12.964 33.555-5.109zM915 792c13.255 0 24 10.745 24 24v24c0 13.255-10.745 24-24 24H458c-13.255 0-24-10.745-24-24v-24c0-13.255 10.745-24 24-24h457z m-8-631c17.673 0 32 14.327 32 32v481c0 17.673-14.327 32-32 32H466c-17.673 0-32-14.327-32-32V193c0-17.673 14.327-32 32-32h441z" p-id="2905" fill="#e6e6e6"></path></svg>